<?xml version="1.0" encoding="utf-8"?>
<!-- Generator: Adobe Illustrator 25.2.1, SVG Export Plug-In . SVG Version: 6.00 Build 0)  -->
<svg version="1.1" id="Layer_1" xmlns="http://www.w3.org/2000/svg" xmlns:xlink="http://www.w3.org/1999/xlink" x="0px" y="0px"
	 viewBox="0 0 169.32 171.11" style="enable-background:new 0 0 169.32 171.11;" xml:space="preserve">
<style type="text/css">
	.st0{fill:#FCFAFA;}
</style>
<g id="Layer_2_1_">
	<g id="Layer_1-2">
		<path class="st0" d="M86.16,171.11l-5.46-7H43.41c-1.14-5,1.29-9.71,0.85-14.62s-0.1-10-0.1-15.18H60V145l4.24,4h49.48l4.35-4.34
			V96.52c-1.08-0.94-2.31-2-3.82-3.37H62.77l-2.66,3.94V106H45.53c-0.42-0.42-0.89-0.9-1.37-1.37v-5.36l2.16-2.14l-2.16-2.73
			c0-22.65,0.05-45.63,0-68.61c0-4,0.64-8.11-0.86-12.12c-0.59-1.58-0.1-3.56-0.1-5.45h35.14L87.2,0l8,8h30.35
			c2.64,2.65,5.12,5.13,7.48,7.48V36h-14.71v-9.23l-4.54-4.54H64.07l-3.8,4v48l4,3.76h49l5-5v-8.76H133v10.65
			c-2.92,2.9-6.09,6.08-9.32,9.21c-0.27,0.25-0.89,0.15-1.22,0.2l10.65,10.64v60.22l-8.9,8.85H94.6c-2.06,2.29-4.25,4.7-6.44,7.11
			H86.16z M122.67,98.26c0.96-0.48,1.75-1.25,2.25-2.2l-3.08,0.28C122.21,97.21,122.43,97.72,122.67,98.26z M110,159.61
			c0.48,0.96,1.25,1.75,2.2,2.25c-0.09-1-0.17-1.9-0.28-3.07L110,159.61z"/>
		<path class="st0" d="M111.07,113.5v14.44H15.55c-2.61-2.65-5.4-5.5-8.34-8.5V93L0,85.76l7.16-7V51.62l8.37-8.36h22.54v13.68H26.84
			L22.3,61.5v47.25l4.36,4.36h10.69c2.93,0,2.93,0,5.82,1.67c2.37-0.61,4.44-1.59,6.5-1.6c20.31-0.12,40.63-0.07,60.94-0.06
			C110.73,113.12,110.85,113.32,111.07,113.5z"/>
		<path class="st0" d="M159.83,43.28l8.24,8.24c0.53,8.42-0.84,16.84,1.25,25.36h-18.08c0.69-5,1.37-10,2-15l-5-4.79H66.42
			c-0.54-2.2-0.18-4.49-0.24-6.74s0-4.62,0-7.11L159.83,43.28z M150.67,46.08l-1.49,1.55l1.51,1.51l1.37-1.56L150.67,46.08z"/>
		<path class="st0" d="M168.16,119.61c-2.82,2.83-5.65,5.65-8.49,8.49h-20.31c-0.43-2.36-0.13-4.82-0.19-7.25s0-4.95,0-7.59h9.76
			l4.18-5.61c-0.75-4.87-1.39-9.05-2.06-13.41h18.19c-0.25,1.05-0.54,2-0.7,3c-0.21,1.11-0.33,2.23-0.35,3.36
			C168.15,107,168.16,113.28,168.16,119.61z"/>
	</g>
</g>
</svg>
